<svg width="76" height="258" viewBox="0 0 76 258" fill="none" xmlns="http://www.w3.org/2000/svg">
<rect width="24" height="24" fill="#4A4AE6"/>
<path d="M23.5 0.5V23.5H0.5V0.5H23.5Z" stroke="black"/>
<rect x="1" y="1" width="1" height="1" fill="white"/>
<rect x="3" y="3" width="18" height="18" fill="white"/>
<rect x="26" width="24" height="24" fill="#4A4AE6"/>
<rect x="52" width="24" height="24" fill="#3CBCFC"/>
<path d="M49.5 0.5V23.5H26.5V0.5H49.5Z" stroke="black"/>
<path d="M75.5 0.5V23.5H52.5V0.5H75.5Z" stroke="black"/>
<rect x="27" y="1" width="1" height="1" fill="white"/>
<rect x="53" y="1" width="1" height="1" fill="white"/>
<rect x="29" y="3" width="2" height="2" fill="white"/>
<rect x="31" y="3" width="2" height="2" fill="white"/>
<rect x="29" y="5" width="2" height="2" fill="white"/>
<rect x="55" y="3" width="2" height="2" fill="white"/>
<rect x="57" y="3" width="2" height="2" fill="white"/>
<rect x="55" y="5" width="2" height="2" fill="white"/>
<rect y="26" width="24" height="24" fill="#00A800"/>
<path d="M23.5 26.5V49.5H0.5V26.5H23.5Z" stroke="black"/>
<rect x="1" y="27" width="1" height="1" fill="white"/>
<rect x="3" y="29" width="18" height="18" fill="white"/>
<rect x="26" y="26" width="24" height="24" fill="#00A800"/>
<rect x="52" y="26" width="24" height="24" fill="#B8F818"/>
<path d="M49.5 26.5V49.5H26.5V26.5H49.5Z" stroke="black"/>
<path d="M75.5 26.5V49.5H52.5V26.5H75.5Z" stroke="black"/>
<rect x="27" y="27" width="1" height="1" fill="white"/>
<rect x="53" y="27" width="1" height="1" fill="white"/>
<rect x="29" y="29" width="2" height="2" fill="white"/>
<rect x="31" y="29" width="2" height="2" fill="white"/>
<rect x="29" y="31" width="2" height="2" fill="white"/>
<rect x="55" y="29" width="2" height="2" fill="white"/>
<rect x="57" y="29" width="2" height="2" fill="white"/>
<rect x="55" y="31" width="2" height="2" fill="white"/>
<rect y="52" width="24" height="24" fill="#D800D8"/>
<path d="M23.5 52.5V75.5H0.5V52.5H23.5Z" stroke="black"/>
<rect x="1" y="53" width="1" height="1" fill="white"/>
<rect x="3" y="55" width="18" height="18" fill="white"/>
<rect x="26" y="52" width="24" height="24" fill="#D800D8"/>
<rect x="52" y="52" width="24" height="24" fill="#F878F8"/>
<path d="M49.5 52.5V75.5H26.5V52.5H49.5Z" stroke="black"/>
<path d="M75.5 52.5V75.5H52.5V52.5H75.5Z" stroke="black"/>
<rect x="27" y="53" width="1" height="1" fill="white"/>
<rect x="53" y="53" width="1" height="1" fill="white"/>
<rect x="29" y="55" width="2" height="2" fill="white"/>
<rect x="31" y="55" width="2" height="2" fill="white"/>
<rect x="29" y="57" width="2" height="2" fill="white"/>
<rect x="55" y="55" width="2" height="2" fill="white"/>
<rect x="57" y="55" width="2" height="2" fill="white"/>
<rect x="55" y="57" width="2" height="2" fill="white"/>
<rect y="78" width="24" height="24" fill="#4A4AE6"/>
<path d="M23.5 78.5V101.5H0.5V78.5H23.5Z" stroke="black"/>
<rect x="1" y="79" width="1" height="1" fill="white"/>
<rect x="3" y="81" width="18" height="18" fill="white"/>
<rect x="26" y="78" width="24" height="24" fill="#4A4AE6"/>
<rect x="52" y="78" width="24" height="24" fill="#58F858"/>
<path d="M49.5 78.5V101.5H26.5V78.5H49.5Z" stroke="black"/>
<path d="M75.5 78.5V101.5H52.5V78.5H75.5Z" stroke="black"/>
<rect x="27" y="79" width="1" height="1" fill="white"/>
<rect x="53" y="79" width="1" height="1" fill="white"/>
<rect x="29" y="81" width="2" height="2" fill="white"/>
<rect x="31" y="81" width="2" height="2" fill="white"/>
<rect x="29" y="83" width="2" height="2" fill="white"/>
<rect x="55" y="81" width="2" height="2" fill="white"/>
<rect x="57" y="81" width="2" height="2" fill="white"/>
<rect x="55" y="83" width="2" height="2" fill="white"/>
<rect y="104" width="24" height="24" fill="#E40058"/>
<path d="M23.5 104.5V127.5H0.5V104.5H23.5Z" stroke="black"/>
<rect x="1" y="105" width="1" height="1" fill="white"/>
<rect x="3" y="107" width="18" height="18" fill="white"/>
<rect x="26" y="104" width="24" height="24" fill="#E40058"/>
<rect x="52" y="104" width="24" height="24" fill="#58F898"/>
<path d="M49.5 104.5V127.5H26.5V104.5H49.5Z" stroke="black"/>
<path d="M75.5 104.5V127.5H52.5V104.5H75.5Z" stroke="black"/>
<rect x="27" y="105" width="1" height="1" fill="white"/>
<rect x="53" y="105" width="1" height="1" fill="white"/>
<rect x="29" y="107" width="2" height="2" fill="white"/>
<rect x="31" y="107" width="2" height="2" fill="white"/>
<rect x="29" y="109" width="2" height="2" fill="white"/>
<rect x="55" y="107" width="2" height="2" fill="white"/>
<rect x="57" y="107" width="2" height="2" fill="white"/>
<rect x="55" y="109" width="2" height="2" fill="white"/>
<rect y="130" width="24" height="24" fill="#58F898"/>
<path d="M23.5 130.5V153.5H0.5V130.5H23.5Z" stroke="black"/>
<rect x="1" y="131" width="1" height="1" fill="white"/>
<rect x="3" y="133" width="18" height="18" fill="white"/>
<rect x="26" y="130" width="24" height="24" fill="#58F898"/>
<rect x="52" y="130" width="24" height="24" fill="#6888FF"/>
<path d="M49.5 130.5V153.5H26.5V130.5H49.5Z" stroke="black"/>
<path d="M75.5 130.5V153.5H52.5V130.5H75.5Z" stroke="black"/>
<rect x="27" y="131" width="1" height="1" fill="white"/>
<rect x="53" y="131" width="1" height="1" fill="white"/>
<rect x="29" y="133" width="2" height="2" fill="white"/>
<rect x="31" y="133" width="2" height="2" fill="white"/>
<rect x="29" y="135" width="2" height="2" fill="white"/>
<rect x="55" y="133" width="2" height="2" fill="white"/>
<rect x="57" y="133" width="2" height="2" fill="white"/>
<rect x="55" y="135" width="2" height="2" fill="white"/>
<rect y="156" width="24" height="24" fill="#F83800"/>
<path d="M23.5 156.5V179.5H0.5V156.5H23.5Z" stroke="black"/>
<rect x="1" y="157" width="1" height="1" fill="white"/>
<rect x="3" y="159" width="18" height="18" fill="white"/>
<rect x="26" y="156" width="24" height="24" fill="#F83800"/>
<rect x="52" y="156" width="24" height="24" fill="#7C7C7C"/>
<path d="M49.5 156.5V179.5H26.5V156.5H49.5Z" stroke="black"/>
<path d="M75.5 156.5V179.5H52.5V156.5H75.5Z" stroke="black"/>
<rect x="27" y="157" width="1" height="1" fill="white"/>
<rect x="53" y="157" width="1" height="1" fill="white"/>
<rect x="29" y="159" width="2" height="2" fill="white"/>
<rect x="31" y="159" width="2" height="2" fill="white"/>
<rect x="29" y="161" width="2" height="2" fill="white"/>
<rect x="55" y="159" width="2" height="2" fill="white"/>
<rect x="57" y="159" width="2" height="2" fill="white"/>
<rect x="55" y="161" width="2" height="2" fill="white"/>
<rect y="182" width="24" height="24" fill="#6B0505"/>
<path d="M23.5 182.5V205.5H0.5V182.5H23.5Z" stroke="black"/>
<rect x="1" y="183" width="1" height="1" fill="white"/>
<rect x="3" y="185" width="18" height="18" fill="white"/>
<rect x="26" y="182" width="24" height="24" fill="#6B0505"/>
<rect x="52" y="182" width="24" height="24" fill="#A80020"/>
<path d="M49.5 182.5V205.5H26.5V182.5H49.5Z" stroke="black"/>
<path d="M75.5 182.5V205.5H52.5V182.5H75.5Z" stroke="black"/>
<rect x="27" y="183" width="1" height="1" fill="white"/>
<rect x="53" y="183" width="1" height="1" fill="white"/>
<rect x="29" y="185" width="2" height="2" fill="white"/>
<rect x="31" y="185" width="2" height="2" fill="white"/>
<rect x="29" y="187" width="2" height="2" fill="white"/>
<rect x="55" y="185" width="2" height="2" fill="white"/>
<rect x="57" y="185" width="2" height="2" fill="white"/>
<rect x="55" y="187" width="2" height="2" fill="white"/>
<rect y="208" width="24" height="24" fill="#4A4AE6"/>
<path d="M23.5 208.5V231.5H0.5V208.5H23.5Z" stroke="black"/>
<rect x="1" y="209" width="1" height="1" fill="white"/>
<rect x="3" y="211" width="18" height="18" fill="white"/>
<rect x="26" y="208" width="24" height="24" fill="#4A4AE6"/>
<rect x="52" y="208" width="24" height="24" fill="#F83800"/>
<path d="M49.5 208.5V231.5H26.5V208.5H49.5Z" stroke="black"/>
<path d="M75.5 208.5V231.5H52.5V208.5H75.5Z" stroke="black"/>
<rect x="27" y="209" width="1" height="1" fill="white"/>
<rect x="53" y="209" width="1" height="1" fill="white"/>
<rect x="29" y="211" width="2" height="2" fill="white"/>
<rect x="31" y="211" width="2" height="2" fill="white"/>
<rect x="29" y="213" width="2" height="2" fill="white"/>
<rect x="55" y="211" width="2" height="2" fill="white"/>
<rect x="57" y="211" width="2" height="2" fill="white"/>
<rect x="55" y="213" width="2" height="2" fill="white"/>
<rect y="234" width="24" height="24" fill="#F83800"/>
<path d="M23.5 234.5V257.5H0.5V234.5H23.5Z" stroke="black"/>
<rect x="1" y="235" width="1" height="1" fill="white"/>
<rect x="3" y="237" width="18" height="18" fill="white"/>
<rect x="26" y="234" width="24" height="24" fill="#F83800"/>
<rect x="52" y="234" width="24" height="24" fill="#FFA500"/>
<path d="M49.5 234.5V257.5H26.5V234.5H49.5Z" stroke="black"/>
<path d="M75.5 234.5V257.5H52.5V234.5H75.5Z" stroke="black"/>
<rect x="27" y="235" width="1" height="1" fill="white"/>
<rect x="53" y="235" width="1" height="1" fill="white"/>
<rect x="29" y="237" width="2" height="2" fill="white"/>
<rect x="31" y="237" width="2" height="2" fill="white"/>
<rect x="29" y="239" width="2" height="2" fill="white"/>
<rect x="55" y="237" width="2" height="2" fill="white"/>
<rect x="57" y="237" width="2" height="2" fill="white"/>
<rect x="55" y="239" width="2" height="2" fill="white"/>
</svg>
