<svg width="308" height="44" viewBox="0 0 308 44" fill="none" xmlns="http://www.w3.org/2000/svg">
<path d="M41.5361 7.19824C43.5358 6.08078 45.9999 7.52668 46 9.81738V34.1826C45.9999 36.4733 43.5358 37.9192 41.5361 36.8018L19.7363 24.6191C17.6876 23.4743 17.6876 20.5257 19.7363 19.3809L41.5361 7.19824Z" fill="#4A4AE6" stroke="white" stroke-width="2"/>
<path d="M106.802 31.5361C107.919 33.5358 106.473 35.9999 104.183 36H79.8174C77.5267 35.9999 76.0808 33.5358 77.1982 31.5361L89.3809 9.73633C90.5257 7.68762 93.4743 7.68761 94.6191 9.73633L106.802 31.5361Z" fill="#4A4AE6" stroke="white" stroke-width="2"/>
<path d="M201.198 12.4639C200.081 10.4642 201.527 8.00008 203.817 8H228.183C230.473 8.00008 231.919 10.4642 230.802 12.4639L218.619 34.2637C217.474 36.3124 214.526 36.3124 213.381 34.2637L201.198 12.4639Z" fill="#4A4AE6" stroke="white" stroke-width="2"/>
<path d="M266.464 36.8018C264.464 37.9192 262 36.4733 262 34.1826V9.81738C262 7.52668 264.464 6.08078 266.464 7.19824L288.264 19.3809C290.312 20.5257 290.312 23.4743 288.264 24.6191L266.464 36.8018Z" fill="#4A4AE6" stroke="white" stroke-width="2"/>
<circle cx="154" cy="22" r="19" fill="#FFA500" stroke="white" stroke-width="2"/>
<path d="M139.276 19.1378C139.727 16.8142 140.722 14.6304 142.18 12.7651C143.637 10.8997 145.515 9.40578 147.661 8.40538" stroke="white" stroke-width="2"/>
</svg>
